{"title":"Gori tere pyaaar merin (2013) UNTOUCHED CAM - Team IcTv Exclusi","uid":9233957,"size":747810816,"categoryP":"video","categoryS":"movies","magnet":"?xt=urn:btih:2b5d0673cad4582209459bbee7cd8ce707769619&amp;dn=+Gori+tere+pyaaar+merin+%282013%29+UNTOUCHED+CAM+-+Team+IcTv+Exclusi&amp;tr=udp%3A%2F%2Ftracker.openbittorrent.com%3A80&amp;tr=udp%3A%2F%2Fopen.demonii.com%3A1337&amp;tr=udp%3A%2F%2Ftracker.coppersurfer.tk%3A6969&amp;tr=udp%3A%2F%2Fexodus.desync.com%3A6969","seeders":1,"leechers":1,"uploader":"TeX","files":7,"time":1385134294,"description":" &lt;a href=&quot;http://imageshack.com/a/img812/740/jnif.jpg&quot; rel=&quot;nofollow&quot; target=&quot;_NEW&quot;&gt;http://imageshack.com/a/img812/740/jnif.jpg&lt;/a&gt;\n\nVideo\nID                                       : 224 (0xE0)\nFormat                                   : MPEG Video\nFormat version                           : Version 2\nFormat profile                           : Main@Main\nFormat settings, BVOP                    : Yes\nFormat settings, Matrix                  : Default\nFormat settings, GOP                     : M=3, N=13\nDuration                                 : 2h 13mn\nBit rate mode                            : Variable\nBit rate                                 : 603 Kbps\nMaximum bit rate                         : 9 672 Kbps\nWidth                                    : 352 pixels\nHeight                                   : 288 pixels\nDisplay aspect ratio                     : 4:3\nFrame rate                               : 25.000 fps\nStandard                                 : PAL\nColor space                              : YUV\nChroma subsampling                       : 4:2:0\nBit depth                                : 8 bits\nScan type                                : Progressive\nCompression mode                         : Lossy\nBits/(Pixel*Frame)                       : 0.238\nStream size                              : 576 MiB (81%)\n\nAudio\nID                                       : 192 (0xC0)\nFormat                                   : MPEG Audio\nFormat version                           : Version 1\nFormat profile                           : Layer 2\nDuration                                 : 2h 13mn\nBit rate mode                            : Constant\nBit rate                                 : 128 Kbps\nChannel(s)                               : 2 channels\nSampling rate                            : 48.0 KHz\nCompression mode                         : Lossy\nStream size                              : 122 MiB (17%)\n &lt;a href=&quot;\nhttp://imageshack.com/a/img809/2977/4imi.jpg&quot; rel=&quot;nofollow&quot; target=&quot;_NEW&quot;&gt;\nhttp://imageshack.com/a/img809/2977/4imi.jpg&lt;/a&gt; &lt;a href=&quot;\nhttp://imageshack.com/a/img6/6395/1ar7.jpg&quot; rel=&quot;nofollow&quot; target=&quot;_NEW&quot;&gt;\nhttp://imageshack.com/a/img6/6395/1ar7.jpg&lt;/a&gt; &lt;a href=&quot;\nhttp://imageshack.com/a/img12/2944/21xg.jpg&quot; rel=&quot;nofollow&quot; target=&quot;_NEW&quot;&gt;\nhttp://imageshack.com/a/img12/2944/21xg.jpg&lt;/a&gt; &lt;a href=&quot;\nhttp://imageshack.com/a/img15/3246/dja2.jpg&quot; rel=&quot;nofollow&quot; target=&quot;_NEW&quot;&gt;\nhttp://imageshack.com/a/img15/3246/dja2.jpg&lt;/a&gt;","torrent":{"xt":"urn:btih:2b5d0673cad4582209459bbee7cd8ce707769619","amp;dn":"+Gori+tere+pyaaar+merin+%282013%29+UNTOUCHED+CAM+-+Team+IcTv+Exclusi","amp;tr":["udp%3A%2F%2Ftracker.openbittorrent.com%3A80","udp%3A%2F%2Fopen.demonii.com%3A1337","udp%3A%2F%2Ftracker.coppersurfer.tk%3A6969","udp%3A%2F%2Fexodus.desync.com%3A6969"],"infoHash":"2b5d0673cad4582209459bbee7cd8ce707769619","infoHashBuffer":{"type":"Buffer","data":[43,93,6,115,202,212,88,34,9,69,155,190,231,205,140,231,7,118,150,25]},"announce":[],"urlList":[]}}